<svg width="185" height="44" viewBox="0 0 185 44" fill="none" xmlns="http://www.w3.org/2000/svg">
<path d="M2.67897 38.003L0 42.5256L1.33516 41.7681L2.70803 39.4468L2.68132 39.4623V37.9999L2.67897 38.003ZM10.979 23.9949L2.67033 28.721V37.9937L2.68132 37.9883V30.1942L9.65716 26.2264L10.979 23.9949ZM10.99 22.4521L10.979 22.4582V23.9949L10.99 23.9887V22.4521ZM28.7029 19.251C28.4028 21.6497 26.6993 24.3245 24.6495 25.4906L4.02748 37.2199L2.70567 39.4499L24.6613 26.9638C26.9216 25.6778 28.761 22.5534 28.761 19.9962C28.7619 19.7467 28.7428 19.4975 28.7037 19.251H28.7029ZM2.67033 17.8714V25.7041L2.68132 25.698V17.907L2.70803 17.8915L2.67033 17.8714ZM4.01884 17.1456L2.70567 17.8915L9.6658 21.7239L10.9766 20.978L4.01649 17.1456H4.01884ZM29.4396 12.7306C29.2055 13.1293 28.955 13.5162 28.6879 13.8912C30.17 14.2936 31.1871 15.6275 31.3897 17.6958C31.407 17.4626 31.4156 17.232 31.4156 17.004C31.4156 14.8994 30.6601 13.4208 29.4396 12.7298V12.7306ZM28.7005 6.96612C28.4005 9.36476 26.697 12.0389 24.6471 13.2049L10.9766 20.978V22.4482L10.9876 22.4544L24.6613 14.6766C26.9216 13.3906 28.761 10.2662 28.761 7.70892C28.762 7.45944 28.7428 7.21028 28.7037 6.9638L28.7005 6.96612ZM27.6826 0C26.77 0 25.7404 0.293253 24.651 0.913031L0 14.9358L1.32181 15.6639L24.6613 2.38858C25.7506 1.76958 26.7818 1.47555 27.6929 1.47555C29.7058 1.47555 31.1486 2.9039 31.3928 5.40855C31.4101 5.17539 31.4187 4.94507 31.4187 4.71758C31.4156 1.73012 29.8927 0.00232126 27.6787 0.00232126" fill="#DAFA6E"/>
<path d="M2.6954 37.9771L2.67969 37.9864V38.0034L2.6954 37.9771ZM10.9883 25.4686L9.65317 26.2268L2.6954 37.9771L4.03056 37.2188L10.9883 25.4686ZM9.66652 21.7244L2.67655 25.6984V27.1786L10.9742 22.4586V22.4463L9.66338 21.7244H9.66652ZM31.3873 17.697C31.0833 21.7731 28.175 26.4992 24.6447 28.5071L1.33589 41.7685L0.0117188 44L24.662 29.9811C28.3941 27.8579 31.4305 22.6977 31.4305 18.4784C31.4305 18.2076 31.4182 17.9471 31.3936 17.697H31.3873ZM26.4841 15.6666C25.9343 15.6666 25.306 15.8446 24.6478 16.2199L10.9883 23.9891V25.4686L24.662 17.6931C25.3217 17.3178 25.9453 17.1399 26.4982 17.1399C27.6433 17.1399 28.4829 17.902 28.7044 19.2514C28.7351 19.0099 28.7508 18.7667 28.7515 18.5233C28.7515 16.7127 27.8287 15.6666 26.4872 15.6666H26.4841ZM1.32568 15.6628L0.0117188 16.4063L2.67105 17.8718V16.4334L2.69775 16.4187L1.32489 15.6628H1.32568ZM31.3904 5.40895C31.2161 7.74337 30.188 10.2913 28.6777 12.4192C28.9441 12.4903 29.2003 12.5943 29.4403 12.7287C30.6671 10.6457 31.4273 8.2997 31.4273 6.1889C31.4273 5.91808 31.415 5.65733 31.3904 5.40663V5.40895ZM26.4841 3.37939C25.9343 3.37939 25.306 3.55658 24.6478 3.93186L2.6954 16.4187L4.01721 17.146L24.662 5.40586C25.3217 5.03059 25.9453 4.85262 26.4982 4.85262C27.6433 4.85262 28.4829 5.61477 28.7044 6.9642C28.7351 6.72241 28.7508 6.479 28.7515 6.23532C28.7515 4.42551 27.8287 3.37862 26.4872 3.37939" fill="#131212"/>
<path d="M4.02794 37.2206L2.69277 37.9789L2.67706 38.0052V39.4645L2.70377 39.449L4.02794 37.2206ZM9.65526 26.2287L2.67942 30.1949V37.9866L2.69513 37.9773L9.65526 26.2271V26.2287ZM10.9771 22.4465V22.4589L10.9881 22.4527L10.9771 22.4465ZM2.70612 17.8922L2.67942 17.9077V25.6986L9.66939 21.7246L2.70612 17.8922ZM2.69513 16.4221L2.66842 16.4368V17.8752L2.70612 17.8953L4.01694 17.1494L2.69513 16.4221ZM27.6902 1.47314C26.7776 1.47314 25.7479 1.7664 24.6586 2.38618L1.32227 15.663L2.69513 16.419L24.6476 3.93214C25.3073 3.55687 25.9317 3.37968 26.4838 3.37968C27.8253 3.37968 28.7481 4.42579 28.7481 6.23561C28.7474 6.47928 28.7317 6.72269 28.701 6.96448C28.7401 7.21097 28.7593 7.46013 28.7583 7.70961C28.7583 10.263 26.9189 13.3913 24.6586 14.6773L10.9881 22.4527V23.9894L24.6476 16.2201C25.3073 15.8449 25.9317 15.6669 26.4838 15.6669C27.8253 15.6669 28.7481 16.713 28.7481 18.5236C28.7474 18.767 28.7317 19.0102 28.701 19.2517C28.7401 19.4982 28.7593 19.7474 28.7583 19.9968C28.7583 22.5502 26.9189 25.6785 24.6586 26.9645L2.70612 39.4506L1.33562 41.7687L24.6476 28.5074C28.1779 26.4995 31.0878 21.7757 31.3902 17.6972C31.1875 15.629 30.1704 14.2927 28.6884 13.8927C28.9549 13.5177 29.2055 13.1308 29.44 12.732C29.2 12.5977 28.9438 12.4937 28.6774 12.4225C30.1877 10.2947 31.2158 7.74675 31.3902 5.41233C31.1451 2.90459 29.7031 1.47314 27.6902 1.47314Z" fill="#DDFA78"/>
<path d="M57.6443 21.223C58.3029 21.5174 58.8509 22.0022 59.213 22.6106C59.5965 23.2491 59.7934 23.9765 59.7826 24.715C59.7898 25.2619 59.6737 25.8038 59.4425 26.3029C59.2113 26.8019 58.8705 27.2462 58.4439 27.6048C57.5479 28.3921 56.3725 28.8142 55.1629 28.783H49V14.2717H55.0497C56.3039 14.2717 57.3418 14.6257 58.1633 15.3337C58.5602 15.6631 58.8768 16.0736 59.0901 16.5357C59.3035 16.9978 59.4084 17.4999 59.3972 18.0059C59.3959 18.6441 59.2347 19.2724 58.9273 19.837C58.6339 20.4008 58.1912 20.8791 57.6443 21.223ZM56.3597 19.7012C56.5471 19.5268 56.6949 19.3165 56.7938 19.0839C56.8928 18.8512 56.9406 18.6011 56.9344 18.3495C56.9406 18.099 56.8927 17.8499 56.7938 17.6183C56.6948 17.3866 56.5469 17.1776 56.3597 17.0045C56.1646 16.8256 55.9347 16.686 55.6834 16.5939C55.4321 16.5018 55.1644 16.4589 54.8959 16.4677H51.4256V20.2428H54.8959C55.1648 20.251 55.4327 20.2074 55.684 20.1144C55.9353 20.0214 56.165 19.8809 56.3597 19.7012ZM55.0209 26.5068C55.6172 26.528 56.198 26.3204 56.6369 25.9292C56.8391 25.7371 56.9997 25.5079 57.1093 25.2551C57.219 25.0022 57.2754 24.7307 57.2754 24.4565C57.2754 24.1822 57.219 23.9107 57.1093 23.6579C56.9997 23.405 56.8391 23.1758 56.6369 22.9837C56.2004 22.5913 55.6214 22.3819 55.026 22.4012H51.4256V26.5003L55.0209 26.5068Z" fill="black"/>
<path d="M64.2452 26.5674H70.4757V28.783H61.7773V14.2717H64.2452V26.5674Z" fill="black"/>
<path d="M83.0398 28.0727C81.7943 28.7173 80.4038 29.0546 78.9915 29.0546C77.5792 29.0546 76.1887 28.7173 74.9432 28.0727C73.7587 27.4417 72.7768 26.5069 72.1051 25.3711C71.4158 24.2005 71.0621 22.8729 71.0808 21.5256C71.0621 20.1784 71.4158 18.8507 72.1051 17.6802C72.7773 16.5455 73.7592 15.612 74.9432 14.9818C76.1887 14.3372 77.5792 14 78.9915 14C80.4038 14 81.7943 14.3372 83.0398 14.9818C84.2212 15.6128 85.1997 16.5471 85.8677 17.6818C86.5522 18.8539 86.9022 20.1811 86.8819 21.5273C86.9022 22.8735 86.5522 24.2007 85.8677 25.3727C85.1997 26.5075 84.2212 27.4418 83.0398 28.0727ZM78.9949 26.7636C80.5421 26.7636 81.8279 26.2662 82.8522 25.2713C83.8765 24.2764 84.3887 23.0284 84.3887 21.5273C84.3887 20.0295 83.8765 18.7831 82.8522 17.7882C81.8279 16.7933 80.5421 16.2942 78.9949 16.2909C78.0271 16.2786 77.0731 16.514 76.2295 16.9733C75.4168 17.416 74.7459 18.0672 74.2907 18.8551C73.8305 19.6735 73.5893 20.5905 73.5893 21.5224C73.5893 22.4542 73.8305 23.3712 74.2907 24.1896C74.7459 24.9776 75.4168 25.6287 76.2295 26.0715C77.0722 26.5341 78.0262 26.7729 78.9949 26.7636Z" fill="black"/>
<path d="M96.4721 29.0364C95.4192 29.0438 94.3751 28.8508 93.3991 28.4686C92.4833 28.1171 91.6511 27.5887 90.9532 26.9157C90.26 26.2334 89.7157 25.4232 89.3524 24.5332C88.5726 22.6059 88.5726 20.4648 89.3524 18.5375C89.7156 17.6441 90.2598 16.8301 90.9532 16.1435C91.6504 15.4685 92.4827 14.9384 93.3991 14.5857C94.3751 14.2035 95.4192 14.0106 96.4721 14.0179C98.1404 13.9841 99.7706 14.5038 101.092 15.4906C102.396 16.466 103.299 17.8577 103.642 19.4179H101.156C100.833 18.4941 100.209 17.6967 99.3778 17.145C98.5192 16.5893 97.5045 16.3036 96.4721 16.3268C94.9654 16.3268 93.7214 16.8177 92.7398 17.7995C91.7583 18.7814 91.267 20.0277 91.2659 21.5386C91.2659 23.0506 91.7572 24.2954 92.7398 25.2728C93.7225 26.2503 94.9666 26.7412 96.4721 26.7455C97.5337 26.7701 98.575 26.4612 99.4403 25.8652C100.287 25.2638 100.907 24.411 101.207 23.4368H103.707C103.316 25.1441 102.463 26.5077 101.149 27.5277C99.8353 28.5477 98.2762 29.0506 96.4721 29.0364Z" fill="black"/>
<path d="M114.831 28.783L110.136 22.4175H108.38V28.783H105.914V14.2717H108.38V20.2019H110.126L114.391 14.2717H117.412L112.3 21.2737L117.878 28.783H114.831Z" fill="black"/>
<path d="M125.25 14.2717C126.705 14.2717 127.921 14.7272 128.898 15.6381C129.377 16.0795 129.755 16.6135 130.007 17.2055C130.259 17.7976 130.38 18.4343 130.361 19.0745C130.378 19.712 130.257 20.3458 130.005 20.9349C129.752 21.5241 129.375 22.0554 128.898 22.4945C127.923 23.4054 126.707 23.8608 125.25 23.8608H122.177V28.7895H119.709V14.2717H125.25ZM125.135 21.5977C125.495 21.6093 125.854 21.5511 126.19 21.4266C126.526 21.3021 126.834 21.1138 127.094 20.8728C127.587 20.3906 127.863 19.7397 127.863 19.0614C127.863 18.383 127.587 17.7321 127.094 17.2499C126.833 17.0101 126.526 16.823 126.189 16.6996C125.853 16.5763 125.494 16.5191 125.135 16.5315H122.177V21.5912L125.135 21.5977Z" fill="black"/>
<path d="M141.546 28.783L140.261 25.6265H133.571L132.297 28.783H129.682L135.703 14.2717H138.023L144.224 28.783H141.546ZM136.896 17.3775L134.428 23.491H139.404L136.896 17.3775Z" fill="black"/>
<path d="M154.443 28.783L151.219 23.4092H148.376V28.783H145.91V14.2717H151.738C153.188 14.2717 154.389 14.7032 155.344 15.5661C156.298 16.429 156.776 17.5292 156.777 18.8666C156.792 19.7915 156.502 20.6969 155.951 21.4521C155.402 22.2014 154.628 22.7683 153.735 23.0754L157.195 28.783H154.443ZM148.38 16.5103V21.1837H151.61C152.419 21.1837 153.068 20.9655 153.555 20.5292C153.788 20.3105 153.972 20.049 154.098 19.76C154.224 19.4711 154.289 19.1606 154.289 18.847C154.289 18.5334 154.224 18.2229 154.098 17.934C153.972 17.645 153.788 17.3835 153.555 17.1648C153.065 16.7285 152.419 16.5103 151.617 16.5103H148.38Z" fill="black"/>
<path d="M169.375 14.2717L169.385 16.4972H164.99V28.783H162.528V16.4972H158.133V14.2717H169.375Z" fill="black"/>
<path d="M184.158 14.2717L178.732 22.9739V28.783H176.196V22.9641L170.838 14.2717H173.493L177.496 20.7681L181.511 14.2717H184.158Z" fill="black"/>
</svg>
